<svg width="54" height="54" viewBox="0 0 54 54" fill="none" xmlns="http://www.w3.org/2000/svg">
<path d="M16.6667 2.53335C7.06667 6.93335 0 17.3333 0 26.9333C0.133333 40 13.7333 53.3333 26.9333 53.3333C32.4 53.3333 41.3333 49.3333 45.3333 45.2C49.6 40.6667 53.3333 32.1333 53.3333 26.6667C53.3333 16.9333 45.6 6.26668 35.7333 2.13335C29.2 -0.666653 23.2 -0.53332 16.6667 2.53335ZM33.2 18.5333C36.2667 22.1333 38.6667 25.3333 38.6667 25.7333C38.6667 26.1333 37.0667 26.6667 35.0667 26.9333C31.6 27.3333 31.3333 27.8667 31.2 33.3333C31.2 39.0667 30.9333 39.3333 26.9333 39.7333C22.9333 40.1333 22.8 40 22.4 33.7333C22 27.8667 21.7333 27.3333 18.4 26.9333C16.2667 26.6667 14.6667 26.1333 14.6667 25.8667C14.6667 24.8 25.8667 12 26.9333 12C27.3333 12 30.2667 14.9333 33.2 18.5333Z" fill="#F402A2"/>
</svg>
